<svg xmlns="http://www.w3.org/2000/svg" viewBox="0 0 216.78 72.95"><defs><style>.cls-1{font-size:60px;font-family:BerkshireSwash-Regular, Berkshire Swash;letter-spacing:-0.01em;}.cls-1,.cls-5{fill:#f15f5e;}.cls-2{letter-spacing:0em;}.cls-3{letter-spacing:0.01em;}.cls-4{letter-spacing:0em;}</style></defs><g id="Layer_2" data-name="Layer 2"><g id="Layer_1-2" data-name="Layer 1"><text class="cls-1" transform="translate(37.06 57.22)">r<tspan class="cls-2" x="23.04" y="0">e</tspan><tspan class="cls-3" x="50.64" y="0">e</tspan><tspan class="cls-4" x="78.84" y="0">f</tspan><tspan class="cls-3" x="98.18" y="0">a</tspan><tspan x="128.49" y="0">r</tspan><tspan class="cls-3" x="151.52" y="0">e</tspan></text><path class="cls-5" d="M38.24,12a4.7,4.7,0,0,0-1.65-1.18A11.15,11.15,0,0,0,33.9,10a19.52,19.52,0,0,0-3.7-.31A16.56,16.56,0,0,0,28,9.88a12.5,12.5,0,0,0-2.66.67,13.21,13.21,0,0,0-2.68,1.35,9.38,9.38,0,0,0-2.36,2.19,10.93,10.93,0,0,0-1.67,3.27,14.46,14.46,0,0,0-.63,4.5v3.43H13v2h5V50.76A28.51,28.51,0,0,0,13,50.34c-7.18,0-13,2.36-13,5.39,0,0,0,.07,0,.11s0,0,0,0A13.35,13.35,0,0,0,12.54,68.31a4.08,4.08,0,0,0,.7,0h.07c6.12-.14,12.1-4.51,13.5-12.86a11,11,0,0,0,.1-1.75c0-.87,0-1.92,0-2.83,0,0,0-.06,0-.06a3.13,3.13,0,0,0,0-.44V27.29h6v-2H27V18.08a11.56,11.56,0,0,1,.32-2.9,6.26,6.26,0,0,1,.87-2,3.31,3.31,0,0,1,1.27-1.13A3.63,3.63,0,0,1,31,11.72a3.77,3.77,0,0,1,1.67.35,4.54,4.54,0,0,1,1.21.88,5.94,5.94,0,0,1,.87,1.14l.64,1.15a8.56,8.56,0,0,0,.56.88.75.75,0,0,0,.59.35,1.73,1.73,0,0,0,1-.28,2.64,2.64,0,0,0,.72-.73,4.31,4.31,0,0,0,.45-1,3.65,3.65,0,0,0,.16-1.07A2.15,2.15,0,0,0,38.24,12ZM12.45,59.69C7.2,59.69,3,58,3,56s4.25-3.7,9.5-3.7S22,53.94,22,56,17.7,59.69,12.45,59.69Zm12.49-6h0l0,0Z"/></g></g></svg>