<svg xmlns="http://www.w3.org/2000/svg" viewBox="0 0 38.79 58.62"><defs><style>.cls-1{fill:#f15f5e;}</style></defs><g id="Layer_2" data-name="Layer 2"><g id="Layer_1-2" data-name="Layer 1"><path class="cls-1" d="M38.24,2.31a4.83,4.83,0,0,0-1.65-1.18A11.15,11.15,0,0,0,33.9.31,19.52,19.52,0,0,0,30.2,0,16.56,16.56,0,0,0,28,.18a12.5,12.5,0,0,0-2.66.67A13.21,13.21,0,0,0,22.61,2.2a9.38,9.38,0,0,0-2.36,2.19,10.93,10.93,0,0,0-1.67,3.27,14.46,14.46,0,0,0-.63,4.5v3.43H13v2h5V41.06A28.51,28.51,0,0,0,13,40.64C5.83,40.64,0,43,0,46c0,0,0,.07,0,.11s0,0,0,0A13.36,13.36,0,0,0,12.54,58.62a5.31,5.31,0,0,0,.7,0h.07c6.12-.14,12.1-4.51,13.5-12.86a11,11,0,0,0,.1-1.75c0-.87,0-1.92,0-2.83,0-.05,0-.06,0-.06a3.13,3.13,0,0,0,0-.44V17.59h6v-2H27V8.38a11.56,11.56,0,0,1,.32-2.9,6.26,6.26,0,0,1,.87-2,3.31,3.31,0,0,1,1.27-1.13A3.63,3.63,0,0,1,31,2a3.77,3.77,0,0,1,1.67.35,4.54,4.54,0,0,1,1.21.88,5.94,5.94,0,0,1,.87,1.14l.64,1.15a8.56,8.56,0,0,0,.56.88.75.75,0,0,0,.59.35,1.73,1.73,0,0,0,1-.28,2.64,2.64,0,0,0,.72-.73,4.31,4.31,0,0,0,.45-1,3.65,3.65,0,0,0,.16-1.07A2.15,2.15,0,0,0,38.24,2.31ZM12.45,50C7.2,50,3,48.33,3,46.29s4.25-3.7,9.5-3.7,9.5,1.65,9.5,3.7S17.7,50,12.45,50Zm12.49-6h0l0,0Z"/></g></g></svg>