<svg xmlns="http://www.w3.org/2000/svg" viewBox="0 0 86.07 90.05"><defs><style>.cls-1{fill:#10402e;}.cls-2{fill:#f2f2f3;}</style></defs><g id="Layer_2" data-name="Layer 2"><g id="Layer_1-2" data-name="Layer 1"><rect class="cls-1" width="86.07" height="90.05"/><path class="cls-2" d="M54.6,17.73a3.62,3.62,0,0,0-1.55.35,3.41,3.41,0,0,0-1.28,1.13,6.25,6.25,0,0,0-.86,2,11.11,11.11,0,0,0-.32,2.9V31.3h6v2h-6V56.38c.06,2.43-2,3.77-4.08,3.76-2.41,0-4.94-1.61-4.92-2.26V33.3h-5v-2h5V27.87a14.46,14.46,0,0,1,.63-4.5,10.53,10.53,0,0,1,1.67-3.26,9.24,9.24,0,0,1,2.36-2.2,13.21,13.21,0,0,1,2.68-1.35,12.42,12.42,0,0,1,2.65-.67,16.7,16.7,0,0,1,2.26-.18,19.34,19.34,0,0,1,3.69.31,11.1,11.1,0,0,1,2.7.82A4.67,4.67,0,0,1,61.87,18a2.12,2.12,0,0,1,.56,1.37,3.65,3.65,0,0,1-.16,1.07,4,4,0,0,1-.46,1,2.47,2.47,0,0,1-.71.73,1.69,1.69,0,0,1-1,.28.74.74,0,0,1-.58-.35,8.56,8.56,0,0,1-.56-.88l-.64-1.14A6,6,0,0,0,57.49,19a4.59,4.59,0,0,0-1.22-.88A3.74,3.74,0,0,0,54.6,17.73Z"/><path class="cls-2" d="M24.14,61.28c-.2,0-.41.07-.4.27s-.11.21-.1.34A13.36,13.36,0,0,0,36.18,74.33a5.31,5.31,0,0,0,.7,0,4.36,4.36,0,0,0,1.4-.41L36.78,59.4h0Z"/><path class="cls-2" d="M46.86,61.94,37,59.49l-.43.34V74a.34.34,0,0,0,.09.24.38.38,0,0,0,.27.12c6.11-.14,12.1-4.51,13.5-12.86a11,11,0,0,0,.1-1.75c0-.87,0-1.92,0-2.83,0-.33-.31.6-.51.86l-3.2,4.2Z"/><path class="cls-2" d="M49.64,61.85c0,3-5.82,5.5-13,5.5s-13-2.57-13-5.6,5.82-5.4,13-5.4S49.64,58.82,49.64,61.85Z"/><ellipse class="cls-1" cx="36.09" cy="62" rx="9.5" ry="3.7"/></g></g></svg>