<svg xmlns="http://www.w3.org/2000/svg" viewBox="0 0 38.79 58.62"><defs><style>.cls-1{fill:#f15f5e;}.cls-2{fill:#fff;}</style></defs><g id="Layer_2" data-name="Layer 2"><g id="Layer_1-2" data-name="Layer 1"><path class="cls-1" d="M31,2a3.63,3.63,0,0,0-1.56.35A3.31,3.31,0,0,0,28.14,3.5a6.26,6.26,0,0,0-.87,2A11.56,11.56,0,0,0,27,8.38v7.21h6v2H27V40.67c.06,2.43-2,3.77-4.08,3.76-2.41,0-4.93-1.61-4.92-2.26V17.59H13v-2h5V12.16a14.46,14.46,0,0,1,.63-4.5,10.93,10.93,0,0,1,1.67-3.27A9.38,9.38,0,0,1,22.61,2.2,13.21,13.21,0,0,1,25.29.85,12.5,12.5,0,0,1,28,.18,16.56,16.56,0,0,1,30.2,0a19.52,19.52,0,0,1,3.7.31,11.15,11.15,0,0,1,2.69.82,4.83,4.83,0,0,1,1.65,1.18,2.15,2.15,0,0,1,.55,1.38,3.65,3.65,0,0,1-.16,1.07,4.31,4.31,0,0,1-.45,1,2.64,2.64,0,0,1-.72.73,1.73,1.73,0,0,1-1,.28.75.75,0,0,1-.59-.35,8.56,8.56,0,0,1-.56-.88l-.64-1.15a5.94,5.94,0,0,0-.87-1.14,4.54,4.54,0,0,0-1.21-.88A3.77,3.77,0,0,0,31,2Z"/><path class="cls-1" d="M.5,45.57c-.2,0-.4.07-.4.26s-.11.22-.1.35A13.36,13.36,0,0,0,12.54,58.62a5.28,5.28,0,0,0,.7,0,4.28,4.28,0,0,0,1.41-.42l-1.51-14.5h0Z"/><path class="cls-1" d="M23.22,46.22l-9.84-2.44-.43.34V58.25a.39.39,0,0,0,.09.24.38.38,0,0,0,.27.12c6.12-.14,12.1-4.51,13.5-12.86a11,11,0,0,0,.1-1.75c0-.87,0-1.92,0-2.83,0-.33-.32.6-.52.86l-3.2,4.19Z"/><path class="cls-1" d="M26,46.14c0,3-5.82,5.5-13,5.5S0,49.07,0,46s5.83-5.39,13-5.39S26,43.11,26,46.14Z"/><ellipse class="cls-2" cx="12.45" cy="46.29" rx="9.5" ry="3.7"/></g></g></svg>