<svg xmlns="http://www.w3.org/2000/svg" viewBox="0 0 216.77 72.95"><defs><style>.cls-1{font-size:60px;font-family:BerkshireSwash-Regular, Berkshire Swash;letter-spacing:-0.01em;}.cls-1,.cls-5{fill:#f15f5e;}.cls-2{letter-spacing:0em;}.cls-3{letter-spacing:0.01em;}.cls-4{letter-spacing:0em;}.cls-6{fill:#fff;}</style></defs><g id="Layer_2" data-name="Layer 2"><g id="Layer_1-2" data-name="Layer 1"><text class="cls-1" transform="translate(37.06 57.22)">r<tspan class="cls-2" x="23.04" y="0">e</tspan><tspan class="cls-3" x="50.64" y="0">e</tspan><tspan class="cls-4" x="78.84" y="0">f</tspan><tspan class="cls-3" x="98.18" y="0">a</tspan><tspan x="128.49" y="0">r</tspan><tspan class="cls-3" x="151.52" y="0">e</tspan></text><path class="cls-5" d="M31,11.74a3.63,3.63,0,0,0-1.56.35,3.31,3.31,0,0,0-1.27,1.13,6.26,6.26,0,0,0-.87,2A11.5,11.5,0,0,0,27,18.1v7.2h6v2H27V50.39c.06,2.43-2,3.76-4.08,3.76-2.41,0-4.93-1.61-4.92-2.27V27.3H13v-2h5V21.88a14.46,14.46,0,0,1,.63-4.5,10.93,10.93,0,0,1,1.67-3.27,9.2,9.2,0,0,1,2.36-2.19,13.31,13.31,0,0,1,5.34-2,18.14,18.14,0,0,1,2.25-.17,19.52,19.52,0,0,1,3.7.31,10.72,10.72,0,0,1,2.69.82A4.7,4.7,0,0,1,38.24,12a2.15,2.15,0,0,1,.55,1.38,3.65,3.65,0,0,1-.16,1.07,4.31,4.31,0,0,1-.45,1,2.64,2.64,0,0,1-.72.73,1.73,1.73,0,0,1-1,.28.74.74,0,0,1-.59-.36,7.37,7.37,0,0,1-.56-.87c-.19-.36-.41-.74-.64-1.15A5.94,5.94,0,0,0,33.85,13a4.54,4.54,0,0,0-1.21-.88A3.77,3.77,0,0,0,31,11.74Z"/><path class="cls-5" d="M.5,55.29c-.2,0-.4.06-.4.26s-.11.22-.1.35A13.35,13.35,0,0,0,12.54,68.33a4.07,4.07,0,0,0,.7,0,4.28,4.28,0,0,0,1.41-.42l-1.51-14.5h0Z"/><path class="cls-5" d="M23.22,55.94,13.38,53.5l-.43.34V68a.39.39,0,0,0,.09.24.33.33,0,0,0,.27.11c6.12-.13,12.1-4.51,13.5-12.85a11,11,0,0,0,.1-1.75c0-.87,0-1.92,0-2.83,0-.33-.32.6-.52.86l-3.2,4.19Z"/><path class="cls-5" d="M26,55.86c0,3-5.82,5.5-13,5.5S0,58.79,0,55.75s5.83-5.39,13-5.39S26,52.82,26,55.86Z"/><ellipse class="cls-6" cx="12.45" cy="56.01" rx="9.5" ry="3.7"/></g></g></svg>